<?xml version="1.0" encoding="UTF-8"?>
<svg id="Layer_2" data-name="Layer 2" xmlns="http://www.w3.org/2000/svg" viewBox="0 0 224.12 46.78">
  <defs>
    <style>
      .cls-1 {
        fill: none;
      }

      .cls-1, .cls-2, .cls-3 {
        stroke-miterlimit: 10;
      }

      .cls-1, .cls-3 {
        stroke: #603813;
      }

      .cls-4 {
        fill: #f70808;
      }

      .cls-2 {
        stroke: red;
      }

      .cls-3 {
        fill: #42210b;
      }
    </style>
  </defs>
  <g id="Layer_1-2" data-name="Layer 1">
    <g>
      <g>
        <path class="cls-3" d="M5.99,30c1.67-.97,3.98-2.31,5.09-5.07,1.21-2.99.98-7.6-1.34-8.68-2.05-.95-4.91,1.25-5.66,1.83C.29,21,.48,25.48.51,26.34c.04,1.07.17,4.01,1.82,4.7,1.06.44,2.27-.24,3.66-1.04Z"/>
        <path class="cls-1" d="M9.64,16.16c0,.25-.26.51-.4.73-.23.36-.44.72-.62,1.1-.28.6-.54,1.22-.76,1.84-.26.75-.4,1.48-.46,2.27-.03.4-.25,1.06-.04,1.44.42.77-.12,1.51-.75,2.14-.36.37-.84.7-1.27,1.03-.32.25-.62.55-1,.75-.11.31-.49.61-.71.89-.38.5-.69,1-.93,1.54-.13.3-.17.92-.37,1.14"/>
      </g>
      <path class="cls-4" d="M218.82,24.87c.86-.07,1.89.08,2.64-.12,1.21.37,1.29-.65,2.66-.08-1.11-.15-1.86.13-1.32,2.02-1.02-.05-1.41.68-1.32,2.02-.48.74-2.1.04-1.56,2.04-1.69-.78-.98,1.43-1.54,2.04.39,1.8-1.85.34-1.53,2.05-.25.34-.51.68-.76,1.03.13.82-.6.57-.75,1.03-.06.52-2.09-1.42-1.33.13,1.56,2.53.71,2.07-1.32.14.46-.15,1.32.19.66-1.36,1.26.84-.05-1.51.65-1.36.21-.45.43-.91.64-1.36s.42-.91.63-1.36c-.46-2,1.54-.94,1.25-2.73,2.15,1.52-.12-2.48,1.15-2.06-.76-2.11,1.36-.64,1.15-2.06ZM210.18,41.15c.66-.4,1.26-.87,2.48-.57,1.62.81,2.92,1.21,2.49-.54-.39,1.32-1.02,2.35-2.12,2.8-.74.89-.53,2.97-2.12,2.8-1.11-.25-2.88-1.33-2.28.56.15,1.32-2.36-.66-2.27.59-.78-2.7,2.45-.41,1.91-2.82.95-.54.84-2.42,1.91-2.82Z"/>
      <path d="M18.22,31.01c1.67-.25,3.33,1.28,4.99-.88.23,1.37.2,1.42-.07,3.49-.27-3.71-.77,3.37-1.5,2.82-.73-.04-1.79,4.28-3.19,2.3-1.7,8.59-3.19,3.54-4.51,1.49-1.32,2.4-2.68.78-4.1-.87-1.42,2.09-2.65-2.8-3.66-3.71-1.35,2.7-1.68-7.36-.93-6.68.74-1,2.49-1.25,5.22-5.27,2.14,1.03,4.02,0,5.6-1.37,1.59-4.1,3.04-1.21,4.36,2.22-1.39,1.82-2.76-.44-4.12,3.07-.38-1.74-.71-4.57-.98-.74-.46,3.7-.95.11-1.46-.28-.51,3.48-1.02-4.79-1.54.43-1.17,1.88-1.84,4.42-2.02,2.62-.14-1.38.14,1.55.83,3.23.86,4.58,1.72.76,2.57,2.88.85-3.5,1.76-1.01,2.72-.27.94-4.5,1.53,1.88,1.77-1.81.24-.08.25-3.57,0-2.66Z"/>
      <path d="M23.86,26.73c-1.1-1.73-1.2,1.74-.23-6.76.96-.6,2.88-5.74,5.73-4.8,2.92-8.89,5.45-.21,7.52-.46,2.07-4.79,3.51-4.18,4.37,5.03.62,3.14.8,4.41.55,4.82-.25-1.44-.87,2.47-1.85,3.71-.98,1.45-2.36.69-4.15,2.67-1.82.04-3.43.99-4.84,1.01-1.42-1.63-2.75-.08-4.01-1.33-1.26-4.86-2.29.05-3.08-3.89ZM29.02,24.53c.64-1.23,1.41,6.5,2.3,2.93.89-.87,1.86,4.91,2.92,0,1.09,5.62,1.81,2.52,2.16-1.98.35-5.06.21-2.37-.43-3.93-.54-1.44-1.26.08-2.17-2.82-.91-5.49-1.92,2.22-3.04.03-1.07,1.77-1.8-1.79-2.16,2.04-.37.34-.23,4.74.42,3.73Z"/>
      <path d="M41.61,11.07c2.27-3.08,4.54-3.24,6.83-2.09,2.28,3.33,4.58-5.07,6.88-1.86.29-3.15.58.27.87,3.43-2.69-.68-5.36-1.7-8.03,2.2.27.1.54,3.48.81,2.76,2.24-2.46,4.5-3.86,6.76-1.87.28,3.8.55,7.34.83,3.22-2.22-.1-4.44-3.26-6.65,1.84.63-.47,1.27,6.55,1.9,6.45-1.71,1.87-3.41,4.15-5.11,1.59-.85,2.75-1.7-2.87-2.55-7.83-.85-6.15-1.7-5.42-2.55-7.83Z"/>
      <path d="M58.35,6.37c2.31-3.26,4.62,2.08,6.94-1.52,2.32-4.95,4.65,2.85,6.98-1.28.19,1.76.39,2,.58,3.49-2.72.06-5.44-1.66-8.14,1.53.2.87.39-2.16.59,2.81,2.28-6.93,4.57-3.05,6.86-1.31.19-3.35.38,1.72.57,3.28-2.25-2.15-4.5-6.79-6.75,1.28.46-2.1.91,5.5,1.37,6.59-1.74-.64-3.47-2-5.2,1.16-.63-6.99-1.26-3.58-1.9-8.01-.63-2.67-1.26-.13-1.9-8.01Z"/>
      <path d="M75.31,3.08c2.53-5.93,5.07,8.6,7.61-1.02,2.54-3.13,5.09-1.02,7.63-.74.09-2.3.18-.65.28,3.5-3.14,3.69-6.27-1.17-9.4.95.11,4.93.22,7.91.32,2.6,2.86-5.39,5.73,1.95,8.61-.89.09,3.17.18,6.01.27,3.35-2.83,1.86-5.65,2.68-8.46.87.13,2.27.27,3.02.4,3.22,3.07,5.8,6.16,1.49,9.24-.93.1.18.19,6.96.29,3.72-2.39-2.73-4.78-2.31-7.17.69-2.39,5.06-4.77-5.36-7.15.95-.41,1.46-.83,2.24-1.24-8.14-.41,1.37-.83-1.01-1.24-8.14Z"/>
      <path d="M93.89,1.09c2.55-.03,5.1,4.58,7.66-.34,2.55,6.19,5.11-.2,7.66-.07-.01-1.49-.02-.62-.03,3.51-3.14-2.83-6.29-.18-9.43.12.03-1.37.06-.06.09,2.62,2.88-1.85,5.76-1.54,8.64-.13,0-3.33-.01-3.06-.02,3.36-2.83,2.94-5.67,3.8-8.5.13.04,1.95.08,1,.12,3.24,3.09-2.38,6.18-1.12,9.28-.12-.01,7.36-.03-3.25-.04,3.73-2.4-.68-4.8,1.01-7.19.05-2.4,5.08-4.79,2.25-7.19.32-.17,1.34-.34-4.64-.52-8.22-.17,1.16-.34-4.37-.52-8.22Z"/>
      <path class="cls-2" d="M132.24,11.95c1.53-3.18,3.04-3.2,4.55,1.98-.5,10.74-1.15-2.11-1.93,2.89-.79,3.92-1.7,7.93-2.74,1.55-1.04-1.21-2.31-2.84-3.83.19-1.84-3.69-3.33.73-4.46-1.21-1.13-2.16-2.08,1.62-2.86-2.97-.78-10.06-1.11-4.9-.98-5.1.17-3.15,1.09,1.58,2.81-6.1,1.72-6.32,4.09,5.73,7.06-1.56,2.32-.45,4.1,3.5,5.31,1.91,1.21-2.66,2,4.68,2.37,4.23-1.68-6.79-3.35-1.97-5.02.33-.11.65-.24-2.93-.4-1.16-.26,1.7-.61-4.34-1.04-1.03-.43,3.19-.92-1.09-1.48-.48-1.27-1.53-2.29-3.49-3.05,1.09-.57,2.19-.92-.09-1.05,3.16-.16,6.08.02,5.65.54,3.82.52,5.42,1.31,1.15,2.36,1.26,1.02-2.73,1.83-.91,2.41-.55.59-1.37,1.07,3.94,1.44-2.22Z"/>
      <path class="cls-2" d="M138.61,19.67c.44-6.67.88-2.27,1.32-8.13.44-4.8.88-10.39,1.32-8.13,3.14.17,6.28-2.83,9.4,1.75,1.74-1.69,3.03-.18,3.89,1.27.85,1.96,1.47-5.14,1.86,1.98.38.1.45-6.07.2,2.79-.22-1.73-.61-4.43-1.18,2.14-.57.17-1.26,2.25-2.08,1.16-.52,1.96-1.2,1.9-2.03.21.6-.19,1.01,3.32,1.26.91.17.95.39.45.66,1.04.27.19.44,2.68.51,1.17.48-1.57.95,5.15,1.39,5.25-1.94-2.05-3.88-.64-5.84-1.38-.56-2.89-1.15-6.58-1.76-5.52-.23,5.31-.47-1.29-.72-1.44-.34,2.63-.75-1.61-1.24-.63-.16-.76-.32-.82-.47-.09-.42,2.14-.83,2.77-1.25,6.56-1.74-8.02-3.49,1.05-5.23-.92ZM145.68,10.98c.77,2.7,1.53,0,2.3.45.25-2.24.74-5.29,1.49.08.37-2.85.71-2.65.99-.32.29-1.32.47-4.33.55-.86.11,1.06.02-8.81-.29-1.31-.31,2.07-.97-1.36-1.98-.85-.81-1.99-1.62,2.26-2.44-.48-.21.17-.42-2.37-.63,3.29Z"/>
      <path class="cls-2" d="M161.16,7.65c1.86,2.34,3.72-1.26,5.57,1.55-.77,2.52-1.54,6.73-2.31,7.9-.77,10.59-1.54,9.15-2.31,7.9-1.71,2.46-3.42,2.79-5.14-1.43.7-2.87,1.4.1,2.09-7.96.7-2.81,1.4-10.59,2.09-7.96Z"/>
      <path class="cls-2" d="M166.48,20.62c1.69-2.54,3.38-1.8,5.06,1.32-.14-2.67-.12-1.6.08,1.92.32,3.88.96,4.42,1.94,1.73.73.26,1.35.3,1.86.13.51.26.85-1.06,1-.89.15-2.32.09,1.23-.18-1.28-.27-3.03-1.04-1.08-2.34-1.85-2.12,3.16-3.56-3.31-4.3-3.55-.75-1.07-.94-7.99-.55-3.51.25-6.78.75-5.65,1.5-2.04.75-.29,1.73-3.71,2.92-.92,1.2-5.12,2.72.23,4.57.88,2.26,1.87,3.84-2.8,4.74,3,.89.91,1.13,1.12.72,4.29-1.7,3.47-3.4.66-5.1-1.64.12-3.93.02-1.91-.29-1.83-.32-2.81-.86-.84-1.62-1.11-.63-.22-1.14-.27-1.54-.14-.4-.16-.66-.03-.77.7-.08-2.75-.03,2.37.16.8.18-.97.71.69,1.59,1.2,2.17,5.53,3.65-1.44,4.47,3.19.82,3.75,1.31-1.06,1.49,2.54.18,4.24.1,4.24-.23,2.53-.39-1.49-1.05-1.99-1.95,2.37-.91-.19-1.96,2.08-3.15.96-1.2-.16-2.58-.23-4.15-.79-2.77-2.79-4.53,1.45-5.29-3.49-.76-2.85-.97-5.34-.63-4.51Z"/>
      <path class="cls-2" d="M188.7,16.95c1.8,2.48,3.59,2.24,5.37,2.32-1.12,4.27-2.25,4.45-3.37,7.51-1.12-.26-2.25,7.48-3.37,7.51-1.64,3.39-3.29-4.72-4.95-2.14,1.05,2.85,2.11-9.05,3.16-7.6,1.05-7.89,2.11-.08,3.16-7.6Z"/>
      <path class="cls-2" d="M192.29,30.58c1.64,8.38,3.27,2.41,4.89,2.03-.25,3.15-.31,3.17-.18,1.92.21,5.4.78-.31,1.71,2,.7,1.22,1.31-1.04,1.85.39.54-4.2.91.97,1.12-.74.2,3.54.2,2.43,0-1.3-.21.46-.9-6.21-2.1-2.17-1.96-3.56-3.25-3.64-3.84-4.14-.6,2.41-.63,1.47-.08-3.56.36,5.58.95,2.58,1.78-1.81.83,4.21,1.85-2.84,3.05-.49,1.21-3.04,2.7,2.87,4.46,1.53,2.16-.3,3.61,3.13,4.35,3.66.74-.6.78,7.08.15,4.36-1.63-4.64-3.26-.19-4.9-2.37.22,1.31.21-3.67-.05-1.86-.25-3.04-.75-4.08-1.48-1.34-.6-.18-1.11-1.69-1.53-.36-.42,1.04-.71-1.52-.87.59-.12,4.95-.1-3.47.06.82.14-1.97.62-2.2,1.44,1.42,2,.92,3.35,10.21,4.05,3.81.71,6.34,1.09,1.65,1.16,2.74.07,4.8-.13,5.89-.57,2.48-.52,3.1-1.28,4.38-2.27,2.07-.99.53-2.09-2.26-3.29.49-1.21-.75-2.56-1.29-4.06-1.38-2.65,1.15-4.26-4.69-4.83-4.22-.57.53-.59-.57-.03-4.56Z"/>
    </g>
  </g>
</svg>