<?xml version="1.0" encoding="UTF-8"?>
<svg id="Layer_2" data-name="Layer 2" xmlns="http://www.w3.org/2000/svg" viewBox="0 0 250.92 50.81">
  <defs>
    <style>
      .cls-1 {
        fill: none;
      }

      .cls-1, .cls-2, .cls-3 {
        stroke-miterlimit: 10;
      }

      .cls-1, .cls-3 {
        stroke: #603813;
      }

      .cls-4 {
        fill: #f70808;
      }

      .cls-2 {
        stroke: red;
      }

      .cls-3 {
        fill: #42210b;
      }
    </style>
  </defs>
  <g id="Layer_1-2" data-name="Layer 1">
    <g>
      <g>
        <path d="M9.27,26.14c1.08-.51,2.16-1.02,3.25-1.51s2.17-.99,3.26-1.47c.55.35,1.11,2.05,1.66,1.24.55,1.66,1.11.78,1.66,1.13.55,2.84,1.11-.19,1.66,1.02.55.7,1.11,3.41,1.66,1.35.55,3.06,1.11-2.52,1.66.77.55,3.2,1.11-.16,1.66,1.6.28,1.49.55,1.6.83,1.46s.55-.53.83-.03c.55-.75,1.11,2.34,1.66.94-.3-1.58-.6,1.33-.89-1.31-.29-1.75-.58-2.06-.87-1.78-.28-3.06-.57-1.29-.84-1.47-.28-.68-.55-3.14-.82-1.63-.27-3.05-.53-2.43-.79-1.79-.26-.64-.51-1.38-.76-1.31-.25,2.82-.5.64-.74-.61-.24.78-.48-1.62-.71-2.5.49.02.97.67,1.46-.82.49-.08.98-2.55,1.46-.36.49,3.19.98-1.4,1.47-.76.49,2.44.98-2.73,1.47-.38.49.06.98.66,1.47-1.25.49-2.79.98-1.03,1.47.15.15,3.43.3,2.51.46,2.34.16-.29.32,1.18.49.82.17-.74.34,1.47.52,2.32.18-1.28.36,3.41.55.84.19-.02.38,1.14.58,1.42.2-.25.4-1.11.61,1.74.21-.77.42,1.68.64,2.04.22,1.74.44,2.65.67,1.12,1.31,2.89,2.62.82,3.91,1.83,1.29-1.09,2.57.39,3.85,1.84,1.27,1.7,2.53,1.24,3.78,1.86,2.5,1.24,4.96,2.5,7.38,3.76,1.21.63,2.41,2.84,3.6,1.9,1.19,1.31,2.37,2.39,3.54,1.91-.48.49-.95.02-1.42.68-.47,1.55-.95.88-1.42.69-.47-.61-.94-.49-1.41-.02-.47.72-.94,1.69-1.41,1.44-.74.35-1.48-.4-2.22-1.18-.74-.3-1.49-2.94-2.24-1.18-.75-1.6-1.5-2.77-2.26-1.18-.57-.83-1.14-3.47-1.71-.88-.57.83-1.14-1.84-1.72-.88-.58-.76-1.15-1.17-1.73-1.4s-1.16-.29-1.74-.34c-1.16,2.39-2.34-2-3.52-1.73.49,1.48.99.56,1.51,2.78.26.75.52,1.11.79,1.45s.54.66.81,1.33c.48.07.95,3.36,1.43,1.13.48,1.16.95-.75,1.43.91.95,1.3,1.91.49,2.86,2.04.95,1.6,1.91.51,2.86,2.04-.75-.48-1.5,1.35-2.24,1.27-.75,1.16-1.49,1.01-2.23,1.3-.62-3.57-1.24-.59-1.86-1.23-.62,1.3-1.24-1.2-1.86-1.23-.62-.95-1.24-.36-1.86-1.23-.62-.41-1.24-.82-1.86-1.23-1.24-2.17-2.48-1.43-3.72-2.47-1.24,1.29-2.48-1.91-3.72-2.47-1.24-.42-2.48-1.15-3.72-2.47-1.24.76-2.48-1.64-3.72-2.47-4.96-3.29-9.92-6.58-14.88-9.87Z"/>
        <path d="M68.71,33.53c-.96-.35-1.92.07-2.87,1.1-.95.65-1.91.6-2.86,1.14.63,2.62,1.27-.14,1.92,2.32.64-.32,1.29,1.42,1.94,2.32-.8,2.29-1.59,2.49-2.38,1.06-.79.31-1.58.75-2.37,1.09-.82-.73-1.63-.49-2.43-2.85-.8-1.11-1.6-.81-2.38-2.86-.39-.48-.78-.95-1.17-1.43s-.78-.95-1.16-1.43c-.77-1.37-1.53-.32-2.28-2.87-.75-1.34-1.5-3.47-2.23-2.87-.46.55-.92-4.57-1.37-1.79-.45,1.24-.9.33-1.35-1.8-.45,1.24-.89-2.58-1.33-1.45-.44.7-.88-3.52-1.31-2.14-.43-1.96-.87-3.02-1.29-3.5s-.85-.4-1.27-.1c-.84.79-1.67-2.69-2.49-3.6.81-1.35,1.63-3.16,2.44-.79.81-.74,1.63-.54,2.45-.76.82-.42,1.63-2.12,2.45-.74,1.25,4.99,2.49-.47,3.72,2.66.62.31,1.23,3.2,1.84,1.55.61,2.64,1.22,1.21,1.82,1.11.61.34,1.21,2.63,1.81,1.42.6,3.15,1.2.32,1.79,1.25.79-.67,1.58,2.94,2.37,1.78.79-.36,1.57,2.57,2.34,1.79.78-.91,1.55,1.19,2.32,1.79,1.15.9,2.29,2.35,3.42,2.69,1.13-2.25,2.25,3.47,3.36,2.69.56.25,1.11.41,1.66,1.42.55,2.76,1.1.79,1.65,1.28.55-.59,1.09.64,1.63,1.35.54-.2,1.08-.27,1.62,1.35-.42,2.2-.83-1.47-1.25.45-.42.9-.83,2.47-1.25.46-.42-1.16-.83.83-1.25.08-.41.79-.83,1.3-1.24.87-.41-.48-.82-.93-1.24-1.66s-.83-1.24-1.24-.37c-.83,2.3-1.67.69-2.51-2.02ZM62.04,28.24c-.94.35-1.89-4.46-2.84-2.19-.95-.05-1.91-2.39-2.87-2.18-.48-1.46-.96-2.59-1.45-1.09-.48.23-.97.44-1.46-1.09-.49-1.93-.97-3.22-1.46-1.82-.49-1.45-.98-.29-1.47-.36.31.87.62,2.2.93.93.31,1.57.62-.86.94,1.61.31,2,.63,1.71.95,1.27.32,2.96.63,1.76.95,1.27.64,1.99,1.28-.22,1.93,2.54.65,2.37,1.3,1.61,1.96,2.54.65-.76,1.3-.11,1.95-.72.65,1.32,1.3.09,1.95-.7Z"/>
        <path d="M57.75,8.72c1.4-2.93,2.8-1.69,4.21-1.02,1.4.12,2.81-4.57,4.22-.95,1.41.45,2.82-3.71,4.23-.88,1.41-2.03,2.82-2.56,4.24-.81.63,1.47,1.26,1.88,1.89,2.84.63.43,1.26,2.66,1.89,2.84-1.05.59-2.1.17-3.15.64-1.05,0-2.1.01-3.14.68-1.05,1.39-2.09-.05-3.14.72.3,1.84.6,1.89.89,1.74s.6-.49.89.57c.3-.86.6-.92.89,1.16.3-1.87.6,1.56.89,1.16.84.56,1.69-1.21,2.53-.62.84-1.94,1.69.13,2.54-.59.85,3.54,1.69-2.69,2.54-.57.6,2.44,1.21,1.6,1.81,2.67.6,1.07,1.21,3.89,1.81,2.67-1.19,2.88-2.38,1.72-3.56.87-1.18-1.06-2.37.36-3.55.93.35,1.27.7,1.8,1.05,2.09s.7.33,1.05.62c.35,2.69.7,1.84,1.05,1.66.35.97.7-2.34,1.05,1.05.35.71.7-.62,1.05,1.95.35,3.29.7,2.48,1.05.76.35.61.7,1.2,1.05,1.35.35,1.54.7,1.41,1.05,1.35-.4,2.08-.81-1.63-1.21.56-.4-.96-.81,1.5-1.21.22-.4.66-.81,2.94-1.21.76-.4,1.04-.8.45-1.21.06-.23.72-.47.86-.7-1.42-.23.63-.47-1.23-.7-.23-.47-1.4-.94-2-1.4-1.65-.47-2.14-.94.71-1.4-.8-.23-1.91-.47-1.42-.7-.9-.23-.5-.47-1.54-.7-1.61-.47-2.33-.94-3.17-1.4-3.41s-.94.09-1.4.11c-.94-1.33-1.87-4.12-2.81-3.31-.94.23-1.87-2.2-2.81-3.31-1.87-2.2-3.75-4.41-5.62-6.61-.94-1.1-1.87-2.2-2.81-3.31Z"/>
        <path d="M78.38,4.41c1.42-1.54,2.83-.89,4.25-.67,1.42-1.88,2.84,1.12,4.26-.6,1.42.62,2.84.42,4.26-.53,1.42-2.03,2.85-.79,4.27-.46.42-.98.83.38,1.25,2.78.42-1.38.83,3.75,1.25,2.78-1.06,1.54-2.12.81-3.18.38-1.06-.53-2.12-.5-3.17.42-1.06.76-2.11.49-3.17.47.21.07.42.5.63.98.21,1.97.42,1.25.63,1.3.21,2.86.42.31.63,1.44.21-.11.42,1.36.63.84.43-.92.85-.96,1.28.62.43-3.38.85-2.43,1.28-1.03.43-1.79.85,1.13,1.28-.08.43-.24.86,1.42,1.28-.31.43,1.36.86-1.22,1.28-.18.43.3.86.37,1.28-.17.41-.45.81.84,1.22,2.62.41,1.46.81-.91,1.22,2.62-1.2-.5-2.4-1.54-3.61.57-1.2-.37-2.4-.57-3.6.63.33.36.66.87.99,1.48.33,1.75.66.67.99,2.09.16.55.33,1.04.49,1.65.16-.49.33,1.52.49,1.38.33,1.35.66.92.99.54.33-1.16.66.88.99,1.08.16-.25.33-.05.49,1.75.16.32.33.21.49.74-.41.04-.82-.18-1.24.1-.41.86-.82.05-1.24.48-.41.09-.82.09-1.23.7-.41,1.87-.82.52-1.23-.08-.29-.83-.59-1.35-.88-1.41-.29-2.36-.59.08-.88-1.41-.15-.82-.29-1.64-.44-1.83-.15-2.24-.29-.25-.44-.97-.29-.51-.59-2-.88-.02-.29.2-.59.16-.88-1.29-.29-1.01-.59-2.06-.88-1.53-.59-1.4-1.18-1.01-1.77-2.82-.39.95-.78-1.2-1.18-1.88-.39-.05-.78-1.22-1.18-1.88-.39-2.41-.78-2.85-1.18-2.94s-.78.18-1.18-.82c-.78,1.6-1.57,1.01-2.35-3.76-.78.76-1.57-2.36-2.35-3.76Z"/>
        <path d="M99.14,1.81c1.24-.1,2.47-.2,3.71-.29,1.24-.7,2.47,1.1,3.71-.23,1.24-1.77,2.47-.53,3.71-.18,1.24-1.32,2.47.16,3.71-.13,1.24,0,2.47-.94,3.71-.07.19-1.58.39-1.3.58,2.65.19,1.49.39-1.02.58,2.65-1.21,2.2-2.43-.88-3.64.13-1.21,5.19-2.43-1.7-3.64.18-1.21-.39-2.43.3-3.64.24.23,1.7.46,3.03.69,2.02.23.83.46,2.93.69,2.02.54-.51,1.07.11,1.61.52.54,0,1.07-.1,1.61-.77.54-1.42,1.07-1.17,1.61-.72s1.07.78,1.61.51c.54.37,1.07,2.45,1.61,1.6.54-.89,1.07-.88,1.61-1.75.1.35.19.77.29,1.21.1,1.48.19.12.29,1.32.1.36.19.13.29,1.27.1.61.19,1.13.29,1.27-.5-.07-1.01-.07-1.51.09-.5.12-1.01.55-1.51.11-.5-2.44-1.01-.05-1.51.3-.5,1.58-1.01-.18-1.51-.06-.5,1.39-1.01,2.52-1.51.09-.5-1.43-1.01.5-1.51.19.14.25.28,1.79.43,1.25.14.31.28,3.74.43,1.25.14-.4.28.71.43,1.25.14-1.88.28.77.43,1.25,1.04,1.29,2.09.36,3.13-.35,1.04,1.66,2.09,1.23,3.13-.3,1.05-.28,2.09-.79,3.14-.25.2-.08.4,1.86.61,2.81.2-.15.4,4.1.61,2.81-1.14-1.45-2.28.32-3.42.37-1.14-1.05-2.28-1.04-3.42.43-1.14,1.56-2.27,1.5-3.41.49-1.13-.27-2.27.2-3.4.56-.5-1.51-1.01-3.01-1.51-3.68-.5-1.98-1.01-.11-1.51-3.68-.5-3.48-1.01-2.92-1.51-3.68-.25-.61-.5-1.23-.76-1.84s-.5-1.23-.76-1.84c-.5.37-1.01-2.2-1.51-3.68-.5-5.95-1.01-2.8-1.51-3.68-.5-1.23-1.01-2.45-1.51-3.68Z"/>
        <path class="cls-2" d="M132.2,1.12c1.15-1.08,2.3.17,3.45.17,1.15.45,2.3,1.12,3.45.22-.01-.22-.03,1.92-.04,2.94-.01.67-.03,3.08-.04,2.94-.01,2.27-.03,1.53-.04,2.94.74.86,1.5-5.58,2.29-2.81.79.11,1.6-.94,2.45-2.74.84-1.62,1.71-2.82,2.61-2.66,1.02-1.72,2.03-.83,3.05.32,1.01-2.56,2.03.89,3.04.35,1.01.12,2.03.25,3.04.39-1.09.8-2.16,1.61-3.19,2.43-1.04,1.58-2.04.68-3.02,2.53-.98,1.48-1.92,1.49-2.84,2.62.25.26.5.87.74,1.57s.47,1.47.69,2.08c.45.75.87,1.2,1.25,3.6.19.48.38,1.42.56,2.21s.35,1.74.52,1.34c.17,1.77.32,1.93.48,2.32s.3.59.43,1.17c-1.04-1.48-2.08,1.71-3.12-.13-1.04,1.94-2.08-2.47-3.12-.07-.27-.36-.56-4.05-.86-3.13-.31.14-.63-.02-.97-3.16-.34-3.85-.71-.83-1.09-3.19-.54.56-1.06,2.81-1.57,1.88-.51-1.92-1.01,2.24-1.49,1.92-.01-.55-.03,5.94-.04,2.85-.01,4.53-.03-.68-.04,2.85-.84-.2-1.68,2.46-2.53.06-.84,1.1-1.68,1.51-2.53.09-.08-.75-.17-3.33-.25-3.98-.08-3.81-.17-3.59-.25-3.98-.08-2-.17-2.65-.25-3.98-.17-2.65-.34-5.3-.5-7.96-.08-1.33-.17-2.65-.25-3.98Z"/>
        <path class="cls-2" d="M152.8,25.13c.27-.23.54-2.7.8-3.24.27-.59.54-3.5.8-3.24.27-2.52.54-3.25.8-3.24.27-2.09.54-4.2.8-3.24.18-.68.36-1.75.54-1.21.18-.83.36-1.12.54-3.11.36-2.02.71-3.59,1.07-4.31,1.27,2.1,2.53,2.33,3.8.58,1.26,2.52,2.53,1.73,3.79.64,1.26.57,2.52.95,3.78.69.52.35,1.01-.3,1.47-.64s.87-.34,1.25,1.31c.38-.09.73.08,1.03-.3.31.32.58,1.1.82,1.09.47.62.85.5,1.14,1,.29,1.44.48.51.59,1.34.1-.23.09,1.03-.03,1.59-.12,2.59-.35.77-.68,1.76-.15,1.45-.3,2.18-.46,2.37-.16-.19-.34-.17-.52-.91-.18,2.11-.38-.84-.58,1.67-.2-.21-.41-2.42-.63-.49-.44.67-.89-1.27-1.37.91-.48-.84-.97.56-1.49.66-.33.36-.69.04-1.1.34-.4-2.17-.85-1.63-1.33.1.58-.99.96.93,1.16.98.13-.88.27-.42.4,1.19.13,4.92.18-.57.17,1.34-.02,1.38-.04-.82-.07,2.05-.03-.02-.06,1.22-.1.97-.04,2.44-.08,3.21-.13,1.49-.05.03-.1.89-.16,1.48-.47-.07-.95-.03-1.42-.04s-.95-.07-1.42-.35c-.95.4-1.9-1.9-2.85-.34,0-.37,0,.51,0-1.61,0,1.25-.02-.06-.04-1.63-.02-1.67-.05-.7-.08-1.64-.03-1.09-.07-1.71-.11-1.65-.06-2.32-.2,1.83-.42-1.72-.29-1.17-.71,2.94-1.23-.67-.17-1.31-.34,1.62-.51-.07-.16-.09-.32,2.76-.48,1.41-.16-.51-.32-.39-.48,1.41-.32.88-.64,3.61-.97,2.82-.32.16-.64,3.54-.97,2.82-.85.12-1.69.56-2.54-.2-.85-2.1-1.69.14-2.54-.16ZM162.12,13.09c.43-1.11.86,2.8,1.29.19.43,1.08.86-2.44,1.28.2.28,1.44.85,2,1.73-.02.44.05.86-.49,1.26-.47.4-.85.7-.22.89-1.1.28.21.29.05.01-1.61-.28-2.17-1,1.32-2.18-.95-.47-.59-.94-.88-1.42-.24-.47,1.33-.94.53-1.42-.23-.24-.42-.48,1.26-.73,2.12-.12-1.62-.24-1.1-.36-.17-.12.6-.24,5.31-.36,2.29Z"/>
        <path class="cls-2" d="M182.2,8.23c1.12,2.39,2.24.33,3.36.85.56.76,1.12.88,1.68.85s1.12-.18,1.68.04c-.44.73-.88.95-1.32,3.01-.44-.94-.88,2.05-1.32.57-.44-.41-.88.17-1.32,1s-.88,4.15-1.32,2.58c-.44-1.1-.88-.05-1.32,1.79-.44,4.94-.88,2.21-1.32,1.79-.44,1.66-.88,2.12-1.32,1.79-.44,2.58-.88.78-1.32,1.79-.44.2-.88,3.57-1.32,1.79-.44-.42-.88.55-1.32,1.79-.84,1.22-1.68.53-2.52-.44-.84,1.56-1.68-.62-2.52-.41.38,1.23.77-1.51,1.15-1.88.38-1.83.77-4.39,1.15-1.88.38-.73.77-2.04,1.15-1.88.38.74.77-2.8,1.15-1.88.38,1.38.77.11,1.15-1.21.38-.78.77-2.22,1.15-2.55.38-1.72.77-1.88,1.15-2.37s.77-.82,1.15-1.39c.77-1.91,1.53-1.73,2.3-3.76Z"/>
        <path class="cls-2" d="M183.11,22.63c.92-1.2,1.85,3.41,2.78.48.46.94.93.33,1.39-.14.46.75.93-2.04,1.39.66-.63-1.66-.98,1.56-1.03,1.97-.09,1.36.36,1.67,1.37,1.59.75.2,1.5.19,2.27-.02.38.17.73.39,1.04.35s.58-.37.82-1.29c.45-2.47.65.33.59-1.25-.03.81-.2-1.35-.51-.76-.16-.62-.35,2.73-.58.04-.23.89-.5-3.52-.8-1.01-.49.85-.94-.14-1.34-1.06-.4-.5-.74-.95-1.03-.69-.59-2.14-.97,1.35-1.15-1.73-.18.55-.18-1.63,0-1.81.18-1.21.54-.83,1.1-1.96.37.33.8.54,1.3-1.23.5,1.79,1.07-2.1,1.71-1.02.32,1.52.65-.33,1-.03.35-.62.7.78,1.07-.67.37-2.12.75-2.33,1.15-1.48.39.98.8,2.58,1.22,1.2.42,1.9.86-1.74,1.31,0,.46-1.64.93.09,1.42.23.49-2.53,1,.14,1.52-1.8.53,1,1.07-.22,1.62,2.62.68.43,1.3-1.06,1.85.76.55-.13,1.03,2.75,1.45.76.83.68,1.38,1.4,1.65,1.73.27,2.97.26,2.44-.03,1.96-.29.17-.86,2.43-1.7,2.25-.5-.3-1.01-.45-1.51-.66-.5-.29-1.01-1.5-1.51-.2-.5-.11-1.01-.15-1.51-1.77-.5.02-1.01,1.44-1.51.95.31.1.52,2.43.64.22.12-1.6.14-.97.06-2.07-.08-1.33-.25-2.38-.51-1.99-.26.23-.62-1.26-1.07.83-.37-1.12-.72-.36-1.06-.72-.34.33-.66-.74-.97.57-.31.77-.58,1.2-.82.07-.24-1.13-.44-.49-.62.67-.25,3.12-.33,1.15-.23.84.08-.31.57,1.6,1.45,1.22.54-1.1,1.03-.49,1.47-.13.44-.53.83-.38,1.17,1.88.68-.69,1.16.97,1.45,1.4.14-1.31.26-1.45.35,1.14.09-.3.15.91.18.07.06-.63,0,.19-.16,1.21-.08.91-.19,3.72-.31,1.97-.13,2.45-.28-.45-.45-.77-.17.3-.36,4.4-.58,1.84-.21,1.42-.45,1.7-.71-.66-.3.32-.62.68-.94,1.29-.33.21-.67.2-1.02-.03-.71-1.1-1.46.72-2.26,1.03-1.6.62-3.16,1-4.69,1.15-.76.07-1.53.09-2.29.03s-1.53-.17-2.31-.35c-1.36-2.5-2.39.31-3.09-1.2-.7-2.21-1.08.99-1.15-1.73-.06-1.66.04-2.54.31-2.2.27-.06.72-2.22,1.36-2.53Z"/>
        <path class="cls-2" d="M215.15,18.68c1.16,3.59,2.31,1.07,3.47,1.39,1.15-1.27,2.3,1.81,3.45,1.45,1.15.89,2.29.26,3.43,1.5,1.14-.04,2.28-2.27,3.41,1.55,1.13-1.89,2.27,1.06,3.4,1.6-.84.38-1.68.77-2.52,1.15-.84.42-1.68-.86-2.52,1.15-1.12-2.93-2.24-3.42-3.37-1.53-1.13-1.52-2.25-1.91-3.39-1.47-1.13-.24-2.27-1.13-3.4-1.42-.28-.59-.56.35-.84,1.1s-.56.82-.84-.08c-.56-.26-1.12-.59-1.68,1.01.51,3.08,1.01.28,1.52,1.24.51-1.09,1.01-.9,1.52-.02.5,1.48,1.01,2.5,1.51,2.6s1.01-.46,1.51-1.34c1-.23,2.01,3.63,3.01,1.31-.8,1.74-1.59-1.54-2.39,1.12-.4.42-.8.18-1.2.1s-.8-.02-1.2,1.02c-.47.99-.95-.77-1.42.33-.47-1.35-.95-.11-1.43-1.51-.48.39-.95.73-1.43-.1-.48-2.22-.95-.18-1.43-1.04-.48-.73-.96-2.08-1.44-.55-.48-1.74-.96.22-1.44-.54-.69-1.17-1.39,2.7-2.08,1.26-.69.66-1.39-.74-2.08,1.26,1.01,1.43,2.01-.41,3.02,1.09,1,.56,2,.35,3,1.14,1,.12,2,1.29,2.99,1.19-.89.83-1.79.58-2.68,1.22-.89.9-1.79,1.68-2.68,1.22-1.1-1.38-2.21-1.18-3.32-1.22-1.11.83-2.22.67-3.33-1.15-1.11.27-2.23.52-3.35-1.09-1.12-.35-2.24-.69-3.36-1.02.54-.39,1.09-.77,1.63-1.16s1.09.77,1.63-1.16c.54-1.77,1.09-2.48,1.63-1.35.54-1.28,1.09-1.23,1.63-.97.54.18,1.09,2.41,1.63-.58.54-2.42,1.09-1.26,1.63-1.73.54-1.05,1.09-3.63,1.63-2.72.54-.15,1.09-.8,1.63.41.54,1.34,1.09-1.2,1.63-1.16.54-.39,1.09-.77,1.63-1.16.54-1.61,1.09.7,1.63-1.16.54-2.18,1.09-.73,1.63-1.16Z"/>
        <path class="cls-4" d="M245.03,32.74c.99.51,1.97,1.32,2.95,1.66.98,1.11,1.96.32,2.94,1.7-1.06-.86-2.11-1.13-3.17.79-1.06-.72-2.11-.37-3.17.79-1.15.29-2.3-1.37-3.45.65-1.15-1.77-2.29.53-3.43.67-1.14,1.75-2.28-.95-3.42.68-.57.11-1.14.23-1.7.35-.57.77-1.13.07-1.7.35-.51.39-1.03-2.56-1.54-.77-.51,3.13-1.03,2.18-1.54-.76.63.18,1.26,1.03,1.88-.69.63,1.53,1.25-1.28,1.88-.7.62-.23,1.25-.47,1.87-.7s1.24-.47,1.86-.71c1.24-1.96,2.47.25,3.71-1.43,1.01,2.69,2.01-2.13,3.02-.94,1.01-2.25,2.01.37,3.02-.94ZM225.18,39.03c.76.1,1.53.11,2.29,1.1.76,1.64,1.52,2.77,2.28,1.13-1.13.79-2.27,1.2-3.4.86-1.13.24-2.27,1.99-3.4.86-.71-.89-1.42-2.84-2.13-.99-.71,1.13-1.42-1.99-2.14-.96,1.08-2.6,2.17,1.22,3.25-1,1.08.17,2.17-1.36,3.25-1Z"/>
      </g>
      <path class="cls-3" d="M4.01,16.11c-1.46,2.1-3.48,5.01-3.51,9.14-.03,4.48,2.27,10.33,5.38,10.54,2.75.18,5-4.11,5.6-5.24,2.99-5.7.79-11.4.36-12.49-.53-1.36-1.97-5.09-4.16-5.15-1.4-.03-2.46,1.46-3.68,3.21Z"/>
      <path class="cls-1" d="M5.37,35.29c-.06-.33.1-.77.17-1.1.11-.55.2-1.1.26-1.65.09-.89.16-1.8.19-2.7.04-1.08-.03-2.11-.17-3.19-.07-.55-.05-1.5-.33-1.96-.56-.91-.28-2.06.11-3.1.23-.6.56-1.18.85-1.75.22-.43.41-.92.69-1.3.02-.44.28-.96.39-1.4.21-.77.35-1.54.42-2.34.04-.45-.08-1.29.03-1.64"/>
    </g>
  </g>
</svg>